<mxfile host="65bd71144e">
    <diagram id="HArjgUYTc68xisWWt_mM" name="Page-1">
        <mxGraphModel dx="1148" dy="1950" grid="1" gridSize="10" guides="1" tooltips="1" connect="1" arrows="1" fold="1" page="1" pageScale="1" pageWidth="850" pageHeight="1100" math="0" shadow="0">
            <root>
                <mxCell id="0"/>
                <mxCell id="1" parent="0"/>
                <mxCell id="24" value="" style="edgeStyle=none;html=1;" parent="1" source="2" target="23" edge="1">
                    <mxGeometry relative="1" as="geometry"/>
                </mxCell>
                <mxCell id="2" value="Start" style="ellipse;whiteSpace=wrap;html=1;" parent="1" vertex="1">
                    <mxGeometry x="150" y="-1080" width="120" height="60" as="geometry"/>
                </mxCell>
                <mxCell id="175" value="" style="edgeStyle=none;html=1;" edge="1" parent="1" source="23" target="174">
                    <mxGeometry relative="1" as="geometry"/>
                </mxCell>
                <mxCell id="23" value="Input number of elements to be entered(maxNum)" style="shape=parallelogram;perimeter=parallelogramPerimeter;whiteSpace=wrap;html=1;fixedSize=1;" parent="1" vertex="1">
                    <mxGeometry x="56.25" y="-980" width="307.5" height="60" as="geometry"/>
                </mxCell>
                <mxCell id="177" value="" style="edgeStyle=none;html=1;" edge="1" parent="1" source="174" target="176">
                    <mxGeometry relative="1" as="geometry"/>
                </mxCell>
                <mxCell id="181" value="" style="edgeStyle=none;html=1;" edge="1" parent="1" source="174" target="180">
                    <mxGeometry relative="1" as="geometry"/>
                </mxCell>
                <mxCell id="174" value="is i =&amp;nbsp; maxNum?" style="rhombus;whiteSpace=wrap;html=1;" vertex="1" parent="1">
                    <mxGeometry x="150" y="-880" width="120" height="120" as="geometry"/>
                </mxCell>
                <mxCell id="231" value="" style="edgeStyle=none;html=1;" edge="1" parent="1" source="176" target="230">
                    <mxGeometry relative="1" as="geometry"/>
                </mxCell>
                <mxCell id="176" value="Print number of Zeros, Positives and Negetives" style="shape=parallelogram;perimeter=parallelogramPerimeter;whiteSpace=wrap;html=1;fixedSize=1;" vertex="1" parent="1">
                    <mxGeometry x="380" y="-850" width="300" height="60" as="geometry"/>
                </mxCell>
                <mxCell id="178" value="Yes" style="text;html=1;align=center;verticalAlign=middle;resizable=0;points=[];autosize=1;strokeColor=none;fillColor=none;" vertex="1" parent="1">
                    <mxGeometry x="300" y="-850" width="40" height="30" as="geometry"/>
                </mxCell>
                <mxCell id="183" value="" style="edgeStyle=none;html=1;" edge="1" parent="1" source="180" target="182">
                    <mxGeometry relative="1" as="geometry"/>
                </mxCell>
                <mxCell id="180" value="Input num" style="shape=parallelogram;perimeter=parallelogramPerimeter;whiteSpace=wrap;html=1;fixedSize=1;" vertex="1" parent="1">
                    <mxGeometry x="120" y="-700" width="180" height="60" as="geometry"/>
                </mxCell>
                <mxCell id="186" value="" style="edgeStyle=none;html=1;" edge="1" parent="1" source="182" target="185">
                    <mxGeometry relative="1" as="geometry"/>
                </mxCell>
                <mxCell id="182" value="is num &amp;gt; 0?" style="rhombus;whiteSpace=wrap;html=1;" vertex="1" parent="1">
                    <mxGeometry x="155" y="-580" width="110" height="110" as="geometry"/>
                </mxCell>
                <mxCell id="184" value="No" style="text;html=1;align=center;verticalAlign=middle;resizable=0;points=[];autosize=1;strokeColor=none;fillColor=none;" vertex="1" parent="1">
                    <mxGeometry x="210" y="-750" width="40" height="30" as="geometry"/>
                </mxCell>
                <mxCell id="185" value="Increment Positive" style="whiteSpace=wrap;html=1;" vertex="1" parent="1">
                    <mxGeometry x="340" y="-555" width="120" height="60" as="geometry"/>
                </mxCell>
                <mxCell id="212" value="" style="edgeStyle=none;html=1;" edge="1" target="214" parent="1">
                    <mxGeometry relative="1" as="geometry">
                        <mxPoint x="210" y="-470" as="sourcePoint"/>
                    </mxGeometry>
                </mxCell>
                <mxCell id="213" value="" style="edgeStyle=none;html=1;" edge="1" source="214" target="215" parent="1">
                    <mxGeometry relative="1" as="geometry"/>
                </mxCell>
                <mxCell id="214" value="is num &amp;lt; 0?" style="rhombus;whiteSpace=wrap;html=1;" vertex="1" parent="1">
                    <mxGeometry x="155" y="-410" width="110" height="110" as="geometry"/>
                </mxCell>
                <mxCell id="215" value="Increment Negetive" style="whiteSpace=wrap;html=1;" vertex="1" parent="1">
                    <mxGeometry x="340" y="-385" width="120" height="60" as="geometry"/>
                </mxCell>
                <mxCell id="216" value="" style="edgeStyle=none;html=1;" edge="1" target="218" parent="1">
                    <mxGeometry relative="1" as="geometry">
                        <mxPoint x="210" y="-300" as="sourcePoint"/>
                    </mxGeometry>
                </mxCell>
                <mxCell id="217" value="" style="edgeStyle=none;html=1;" edge="1" source="218" target="219" parent="1">
                    <mxGeometry relative="1" as="geometry"/>
                </mxCell>
                <mxCell id="228" value="" style="edgeStyle=none;html=1;" edge="1" parent="1" source="218" target="227">
                    <mxGeometry relative="1" as="geometry"/>
                </mxCell>
                <mxCell id="218" value="is num =&amp;nbsp; 0?" style="rhombus;whiteSpace=wrap;html=1;" vertex="1" parent="1">
                    <mxGeometry x="155" y="-240" width="110" height="110" as="geometry"/>
                </mxCell>
                <mxCell id="219" value="Increment Zeros" style="whiteSpace=wrap;html=1;" vertex="1" parent="1">
                    <mxGeometry x="340" y="-215" width="120" height="60" as="geometry"/>
                </mxCell>
                <mxCell id="220" value="Yes" style="text;html=1;align=center;verticalAlign=middle;resizable=0;points=[];autosize=1;strokeColor=none;fillColor=none;" vertex="1" parent="1">
                    <mxGeometry x="280" y="-555" width="40" height="30" as="geometry"/>
                </mxCell>
                <mxCell id="221" value="Yes" style="text;html=1;align=center;verticalAlign=middle;resizable=0;points=[];autosize=1;strokeColor=none;fillColor=none;" vertex="1" parent="1">
                    <mxGeometry x="280" y="-385" width="40" height="30" as="geometry"/>
                </mxCell>
                <mxCell id="222" value="Yes" style="text;html=1;align=center;verticalAlign=middle;resizable=0;points=[];autosize=1;strokeColor=none;fillColor=none;" vertex="1" parent="1">
                    <mxGeometry x="280" y="-215" width="40" height="30" as="geometry"/>
                </mxCell>
                <mxCell id="223" value="No" style="text;html=1;align=center;verticalAlign=middle;resizable=0;points=[];autosize=1;strokeColor=none;fillColor=none;" vertex="1" parent="1">
                    <mxGeometry x="210" y="-460" width="40" height="30" as="geometry"/>
                </mxCell>
                <mxCell id="224" value="No" style="text;html=1;align=center;verticalAlign=middle;resizable=0;points=[];autosize=1;strokeColor=none;fillColor=none;" vertex="1" parent="1">
                    <mxGeometry x="210" y="-290" width="40" height="30" as="geometry"/>
                </mxCell>
                <mxCell id="229" style="edgeStyle=none;html=1;entryX=0;entryY=0.5;entryDx=0;entryDy=0;" edge="1" parent="1" source="227" target="180">
                    <mxGeometry relative="1" as="geometry">
                        <mxPoint x="40" y="-70" as="targetPoint"/>
                        <Array as="points">
                            <mxPoint x="70" y="-40"/>
                            <mxPoint x="70" y="-670"/>
                        </Array>
                    </mxGeometry>
                </mxCell>
                <mxCell id="227" value="Increment I" style="whiteSpace=wrap;html=1;" vertex="1" parent="1">
                    <mxGeometry x="150" y="-70" width="120" height="60" as="geometry"/>
                </mxCell>
                <mxCell id="230" value="End" style="ellipse;whiteSpace=wrap;html=1;" vertex="1" parent="1">
                    <mxGeometry x="470" y="-750" width="120" height="60" as="geometry"/>
                </mxCell>
                <mxCell id="232" value="No" style="text;html=1;align=center;verticalAlign=middle;resizable=0;points=[];autosize=1;strokeColor=none;fillColor=none;" vertex="1" parent="1">
                    <mxGeometry x="210" y="-110" width="40" height="30" as="geometry"/>
                </mxCell>
            </root>
        </mxGraphModel>
    </diagram>
</mxfile>